<?xml version="1.0" encoding="UTF-8" standalone="no"?>
<!-- Created with Inkscape (http://www.inkscape.org/) -->

<svg
   xmlns:osb="http://www.openswatchbook.org/uri/2009/osb"
   xmlns:dc="http://purl.org/dc/elements/1.1/"
   xmlns:cc="http://creativecommons.org/ns#"
   xmlns:rdf="http://www.w3.org/1999/02/22-rdf-syntax-ns#"
   xmlns:svg="http://www.w3.org/2000/svg"
   xmlns="http://www.w3.org/2000/svg"
   xmlns:xlink="http://www.w3.org/1999/xlink"
   xmlns:sodipodi="http://sodipodi.sourceforge.net/DTD/sodipodi-0.dtd"
   xmlns:inkscape="http://www.inkscape.org/namespaces/inkscape"
   id="svg7384"
   version="1.1"
   inkscape:version="0.48.4 r9939"
   height="16"
   sodipodi:docname="weather-clear-symbolic.svg"
   width="16">
  <metadata
     id="metadata90">
    <rdf:RDF>
      <cc:Work
         rdf:about="">
        <dc:format>image/svg+xml</dc:format>
        <dc:type
           rdf:resource="http://purl.org/dc/dcmitype/StillImage" />
        <dc:title>Gnome Symbolic Icon Theme</dc:title>
      </cc:Work>
    </rdf:RDF>
  </metadata>
  <sodipodi:namedview
     inkscape:object-paths="true"
     inkscape:cy="11.859136"
     inkscape:current-layer="layer9"
     inkscape:window-width="1366"
     pagecolor="#555753"
     showborder="false"
     showguides="true"
     inkscape:snap-nodes="false"
     objecttolerance="10"
     showgrid="true"
     inkscape:object-nodes="true"
     inkscape:pageshadow="2"
     inkscape:guide-bbox="true"
     inkscape:window-x="0"
     inkscape:snap-bbox="true"
     bordercolor="#666666"
     id="namedview88"
     inkscape:window-maximized="1"
     inkscape:snap-global="false"
     inkscape:window-y="22"
     gridtolerance="10"
     inkscape:zoom="16"
     inkscape:window-height="711"
     borderopacity="1"
     guidetolerance="10"
     inkscape:snap-bbox-midpoints="false"
     inkscape:cx="6.3449087"
     inkscape:bbox-paths="false"
     inkscape:snap-grids="true"
     inkscape:pageopacity="1"
     inkscape:snap-to-guides="true">
    <inkscape:grid
       visible="true"
       spacingx="1px"
       type="xygrid"
       spacingy="1px"
       id="grid4866"
       empspacing="2"
       enabled="true"
       snapvisiblegridlinesonly="true" />
  </sodipodi:namedview>
  <title
     id="title9167">Gnome Symbolic Icon Theme</title>
  <defs
     id="defs7386">
    <linearGradient
       id="linearGradient5343"
       osb:paint="solid">
      <stop
         style="stop-color:#cccccc;stop-opacity:1;"
         offset="0"
         id="stop5345" />
    </linearGradient>
    <linearGradient
       inkscape:collect="always"
       xlink:href="#linearGradient5343"
       id="linearGradient5347"
       x1="0.53020395"
       y1="7.3109826"
       x2="6.2360571"
       y2="7.3109826"
       gradientUnits="userSpaceOnUse" />
  </defs>
  <g
     transform="translate(-81,-277)"
     inkscape:groupmode="layer"
     id="layer9"
     inkscape:label="status"
     style="display:inline">
    <path
       style="fill:url(#linearGradient5347);opacity:0;fill-opacity:1"
       d="M 1.5238238,10.613921 C 1.2984748,10.549259 1.097428,10.495812 1.0770531,10.49515 1.0418784,10.494008 0.89822757,10.338773 0.79924592,10.19494 0.65435663,9.9843968 0.55046955,9.5892298 0.53486682,9.1892911 0.52424366,8.9169914 0.52866761,8.8650205 0.58122883,8.6446467 0.69893865,8.1511241 0.80655896,7.8781165 1.0073448,7.5636902 1.1173983,7.3913488 1.3842762,7.114316 1.4909164,7.0617184 1.527287,7.0437795 1.6522478,6.9472807 1.7686071,6.8472767 1.9774171,6.667817 1.9830879,6.6647118 2.2044933,6.6085885 c 0.1233782,-0.031275 0.2686406,-0.056863 0.3228054,-0.056863 0.054165,0 0.1370722,-0.016878 0.1842387,-0.037507 0.047166,-0.020629 0.1402039,-0.043053 0.2067497,-0.049831 L 3.0392796,6.4520623 3.0646957,6.3302521 C 3.0944991,6.1874151 3.137612,6.0789286 3.3034646,5.7294268 3.4703428,5.3777641 3.5808633,5.203046 3.7870862,4.9648844 4.0841429,4.6218216 4.3265599,4.4285385 4.8142965,4.1458728 5.0532838,4.0073687 5.2553384,3.8945019 5.2633066,3.8950577 c 0.01201,8.376e-4 0.9543279,1.5209799 0.9726991,1.569153 0.00323,0.00848 -0.146262,0.038682 -0.3322098,0.067124 -0.1859477,0.028442 -0.3595207,0.05975 -0.3857179,0.069573 -0.026197,0.00982 -0.1280208,0.07579 -0.2262749,0.1465923 -0.098254,0.070803 -0.240261,0.1636139 -0.3155707,0.2062475 -0.3246648,0.1837963 -0.6275456,0.6679761 -0.7065718,1.1295131 -0.030954,0.1807804 -0.088159,0.8242694 -0.088159,0.9916854 0,0.045426 -0.6153984,0.037103 -0.7089941,-0.00959 C 3.4119789,8.0351614 3.3223038,8.0283912 2.9652536,8.0270612 2.4785577,8.0252474 2.4880488,8.0228785 2.24988,8.2056574 2.0863201,8.3311787 1.9544612,8.5042918 1.8227233,8.7664569 l -0.1057256,0.2103995 0.012211,0.3322098 c 0.010675,0.2904412 0.019323,0.3489172 0.068782,0.4650937 0.043919,0.1031626 0.066718,0.2240373 0.1019338,0.5404321 0.024949,0.224151 0.042721,0.409651 0.039493,0.412222 -0.00323,0.0026 -0.1902453,-0.04823 -0.4155942,-0.112893 z"
       id="path3131"
       inkscape:connector-curvature="0"
       transform="translate(81,277)" />
    <path
       inkscape:connector-curvature="0"
       id="path5365"
       d="m 84.685266,289.7276 c -0.813239,-0.18178 -1.291966,-0.7085 -1.437197,-1.58129 -0.07583,-0.45546 -0.06759,-0.8568 0.02842,-1.39034 0.04657,-0.25856 0.169901,-0.67129 0.268835,-0.89945 0.183024,-0.42214 0.533717,-0.90112 0.859583,-1.174 0.248475,-0.20807 0.644556,-0.42391 0.90428,-0.49276 0.343181,-0.091 0.726473,-0.1232 1.018642,-0.0856 0.714807,0.0919 1.096797,0.34102 1.327515,0.86561 0.106039,0.24111 0.174152,0.67624 0.10998,0.70274 -0.03642,0.015 -0.653835,0.14136 -0.790121,0.16165 l -0.10377,0.0154 -0.0615,-0.19556 c -0.142842,-0.45427 -0.425505,-0.65289 -0.929213,-0.65289 -0.484173,0 -0.799961,0.147 -1.129768,0.52591 -0.326487,0.3751 -0.492244,0.80575 -0.576837,1.4987 -0.08622,0.70634 0.01075,1.18539 0.305375,1.51159 0.191109,0.21146 0.385156,0.30808 0.695427,0.34627 0.284573,0.035 0.714854,-0.0874 1.07584,-0.30601 0.254732,-0.1543 0.269958,-0.17259 0.304898,-0.36645 0.05469,-0.30353 0.06795,-0.52835 0.03272,-0.55426 -0.0172,-0.0127 -0.258458,-0.0232 -0.536129,-0.0234 -0.388594,-3.1e-4 -0.504831,-0.008 -0.504771,-0.0333 3.6e-5,-0.0278 0.05983,-0.45 0.106158,-0.75011 l 0.01326,-0.0855 1.005375,0 c 0.552966,0 1.010223,0.01 1.016134,0.0202 0.006,0.0107 0.0012,0.0733 -0.01075,0.13817 -0.01194,0.0648 -0.08693,0.53846 -0.166976,1.05236 l -0.14566,0.93434 -0.08299,0.0841 c -0.245824,0.24904 -0.865733,0.56268 -1.375114,0.69573 -0.262888,0.0687 -0.984621,0.0912 -1.221823,0.0382 z m 3.534653,-0.0719 c -0.0048,-0.0167 0.01517,-0.18546 0.0443,-0.37506 0.02914,-0.18959 0.07356,-0.48092 0.09852,-0.64738 0.02508,-0.16648 0.05481,-0.3619 0.06603,-0.43428 0.01075,-0.0724 0.04227,-0.27372 0.0689,-0.44743 0.02675,-0.17371 0.05684,-0.36913 0.06687,-0.43427 0.0096,-0.0652 0.03953,-0.25464 0.06532,-0.42111 0.02579,-0.16648 0.07726,-0.49218 0.114278,-0.72379 0.03702,-0.23161 0.120237,-0.76459 0.184828,-1.18439 0.0646,-0.41979 0.122076,-0.77215 0.127736,-0.783 0.01552,-0.0299 1.932451,-0.0237 2.26762,0.007 0.399651,0.0369 0.599489,0.11548 0.783362,0.30821 0.137349,0.14394 0.220138,0.29982 0.294353,0.55423 0.06472,0.22199 0.06615,0.2368 0.04335,0.4742 -0.02376,0.24776 -0.09446,0.65538 -0.133814,0.77109 -0.01194,0.0346 -0.04777,0.10377 -0.08013,0.15361 -0.03224,0.0498 -0.05863,0.10413 -0.05863,0.12073 0,0.0657 -0.192709,0.33659 -0.347182,0.48812 -0.216126,0.21201 -0.512975,0.37762 -0.778096,0.43411 -0.144287,0.0307 -0.394995,0.047 -0.876827,0.057 -0.444312,0.01 -0.686637,0.024 -0.709541,0.0435 -0.02197,0.0186 -0.05171,0.14116 -0.08072,0.33211 -0.02532,0.16644 -0.06544,0.42698 -0.08932,0.57897 -0.02388,0.152 -0.07093,0.45994 -0.104606,0.68431 -0.03367,0.22437 -0.07117,0.42275 -0.08323,0.44086 -0.03009,0.045 -0.870629,0.0475 -0.883538,0.002 z m 2.586607,-3.00832 c 0.193426,-0.0549 0.309197,-0.12787 0.434258,-0.27342 0.142818,-0.16623 0.209988,-0.33945 0.223673,-0.5769 0.01791,-0.3099 -0.08383,-0.52581 -0.301279,-0.63938 -0.182117,-0.0952 -1.239962,-0.14886 -1.310882,-0.0666 -0.03594,0.0417 -0.04609,0.0954 -0.177663,0.94377 -0.07881,0.50769 -0.08837,0.60596 -0.06257,0.64202 0.02699,0.0378 0.08765,0.0408 0.54118,0.0267 0.339802,-0.0107 0.558412,-0.0294 0.653238,-0.0562 z m 1.85617,3.01609 c -0.0072,-0.0124 0.01731,-0.21079 0.05326,-0.44085 0.03594,-0.23006 0.107711,-0.69662 0.159584,-1.0368 0.05183,-0.34018 0.109502,-0.70734 0.12825,-0.81591 0.01863,-0.10854 0.05421,-0.3336 0.07893,-0.50006 0.0775,-0.52113 0.08395,-0.56102 0.1221,-0.76327 0.02054,-0.10854 0.04561,-0.26858 0.05565,-0.35557 0.0096,-0.0871 0.03487,-0.25874 0.05505,-0.38164 0.02018,-0.1229 0.06759,-0.4248 0.105322,-0.67088 0.03773,-0.2461 0.0738,-0.47435 0.08013,-0.50722 l 0.01194,-0.0598 0.436217,0.007 0.436228,0.007 -0.0024,0.1974 c -0.0012,0.10855 -0.01481,0.25661 -0.02926,0.32899 -0.01457,0.0724 -0.03523,0.19082 -0.04609,0.2632 -0.01075,0.0724 -0.02567,0.14936 -0.03308,0.17108 -0.0072,0.0217 -0.04347,0.24082 -0.08001,0.48691 -0.03654,0.24608 -0.08717,0.56587 -0.112368,0.71062 -0.0252,0.14477 -0.07631,0.46454 -0.113562,0.71063 -0.176552,1.16748 -0.254529,1.67412 -0.285577,1.85553 -0.01863,0.10854 -0.05051,0.31583 -0.07093,0.4606 -0.02042,0.14475 -0.04657,0.28391 -0.05791,0.30925 -0.01863,0.0414 -0.06413,0.0461 -0.449698,0.0461 -0.235925,0 -0.434377,-0.0108 -0.440981,-0.0226 z m 1.862236,0.002 c -0.01194,-0.0217 -0.0048,-0.0746 0.09864,-0.73037 0.03857,-0.2461 0.08466,-0.54218 0.102337,-0.65799 0.01767,-0.11583 0.06233,-0.40598 0.09911,-0.64483 0.03678,-0.23885 0.08872,-0.57639 0.115353,-0.7501 0.05696,-0.37132 0.101143,-0.64032 0.147081,-0.89487 0.01827,-0.10139 0.06604,-0.40927 0.106039,-0.68431 0.04,-0.27504 0.0947,-0.6422 0.121419,-0.81591 l 0.04872,-0.31583 0.448527,-0.007 0.448528,-0.007 -0.01075,0.19137 c -0.006,0.10532 -0.02245,0.2506 -0.03678,0.32298 -0.01433,0.0724 -0.03511,0.19082 -0.04633,0.2632 -0.01075,0.0724 -0.03594,0.21456 -0.05493,0.31594 -0.01899,0.10138 -0.05039,0.30723 -0.06986,0.45739 -0.01947,0.15017 -0.04012,0.2821 -0.04609,0.29318 -0.006,0.0107 -0.04705,0.25531 -0.09135,0.54276 -0.0443,0.28744 -0.12653,0.81871 -0.18263,1.1806 -0.05612,0.36189 -0.122447,0.79419 -0.147416,0.96067 -0.02496,0.16647 -0.05565,0.36781 -0.06806,0.44742 -0.01242,0.0797 -0.03296,0.21467 -0.0455,0.30011 -0.03952,0.26933 -0.0072,0.25261 -0.496627,0.25261 -0.235924,0 -0.433613,-0.008 -0.439297,-0.0197 z M 79.82022,287.82353 c -0.02018,-0.0706 -0.05696,-0.24947 -0.08168,-0.39744 -0.105084,-0.62881 -0.01672,-1.30446 0.25017,-1.91252 0.334536,-0.76219 0.931112,-1.32905 1.649669,-1.56748 0.207456,-0.0689 0.296598,-0.0835 0.5851,-0.0956 0.210346,-0.008 0.404607,-0.002 0.508592,0.0161 0.09935,0.018 0.176589,0.0209 0.188613,0.007 0.01075,-0.013 0.02985,-0.11117 0.04132,-0.21805 0.05732,-0.53183 0.12167,-0.83705 0.263032,-1.24721 0.371303,-1.07737 1.129982,-1.98402 2.027515,-2.42299 0.513333,-0.25106 0.9784,-0.3581 1.554246,-0.35775 0.428848,2.8e-4 0.727679,0.0491 1.09995,0.17969 0.63203,0.22171 1.195815,0.62603 1.665108,1.19413 0.268931,0.32554 0.46798,0.65517 0.666791,1.10425 0.07881,0.17787 0.149673,0.30619 0.172015,0.3112 0.0209,0.005 0.107711,-0.0453 0.192972,-0.11094 0.325281,-0.25084 0.742976,-0.43413 1.126818,-0.49447 0.275056,-0.0432 0.72713,-0.0125 0.991463,0.0673 0.435225,0.13157 0.760912,0.33269 1.122161,0.69296 0.148598,0.14818 0.176146,0.15976 0.246731,0.10365 0.0246,-0.0196 0.07535,-0.0439 0.112846,-0.0541 0.0375,-0.0108 0.144645,-0.0523 0.238241,-0.0935 0.669633,-0.2951 1.473044,-0.25393 2.09367,0.10735 0.541479,0.31514 0.946349,0.78202 1.213142,1.39897 0.184219,0.42598 0.277433,0.88033 0.27797,1.35485 2.27e-4,0.1972 -0.03332,0.21725 -0.05445,0.0326 -0.0209,-0.18319 -0.11607,-0.55415 -0.198835,-0.77511 -0.378206,-1.01019 -1.301651,-1.69914 -2.276432,-1.69838 -0.658015,5.1e-4 -1.120681,0.20562 -1.507926,0.66848 -0.05565,0.0665 -0.112606,0.1209 -0.126733,0.1209 -0.01409,0 -0.07989,-0.15012 -0.146364,-0.3336 -0.14541,-0.40165 -0.226157,-0.50451 -0.53447,-0.68082 -0.921917,-0.5272 -2.052472,-0.34209 -2.781251,0.45538 -0.0855,0.0935 -0.168336,0.16435 -0.184111,0.15734 -0.01576,-0.007 -0.06771,-0.12382 -0.115472,-0.25955 -0.28166,-0.80023 -0.87426,-1.55171 -1.580708,-2.00444 -0.826303,-0.52956 -1.846377,-0.65106 -2.779484,-0.33104 -1.378015,0.4726 -2.436839,1.97071 -2.542747,3.59769 -0.0096,0.15511 -0.02627,0.25023 -0.04394,0.25808 -0.0154,0.007 -0.113562,-0.0147 -0.218156,-0.0479 -0.16768,-0.0531 -0.239984,-0.0601 -0.609986,-0.0584 -0.406602,10e-4 -0.427153,0.005 -0.655805,0.0866 -0.900721,0.32339 -1.537468,1.08501 -1.760926,2.10627 -0.0529,0.24204 -0.07607,0.65593 -0.05457,0.97512 0.01075,0.1515 0.01505,0.27958 0.01075,0.28463 -0.0048,0.005 -0.02448,-0.0486 -0.04466,-0.11917 z"
       style="fill:#828282" />
    <path
       inkscape:connector-curvature="0"
       id="path5363"
       d="m 84.818866,289.72692 c -0.006,-0.006 -0.07977,-0.0246 -0.164779,-0.0404 -0.513763,-0.0952 -0.964392,-0.44048 -1.180685,-0.90465 -0.05493,-0.11798 -0.116786,-0.27317 -0.137397,-0.34494 -0.123891,-0.4315 -0.137934,-1.18179 -0.03176,-1.69873 0.173138,-0.84331 0.553815,-1.54232 1.097455,-2.01515 0.163369,-0.14209 0.533991,-0.37025 0.714723,-0.43999 0.342011,-0.13196 0.820082,-0.18387 1.25539,-0.13632 0.555319,0.0607 0.912078,0.25752 1.153376,0.6364 0.154246,0.2422 0.303966,0.82683 0.220675,0.86171 -0.01731,0.007 -0.118219,0.0307 -0.224329,0.0521 -0.106039,0.0214 -0.279654,0.057 -0.385728,0.079 -0.106039,0.0221 -0.204256,0.0404 -0.21818,0.0406 -0.01397,2.6e-4 -0.04848,-0.0736 -0.07678,-0.16402 -0.15089,-0.48197 -0.443213,-0.68693 -0.977468,-0.68534 -0.228783,6.9e-4 -0.292037,0.0107 -0.488698,0.0822 -0.341999,0.12326 -0.633045,0.367 -0.834387,0.69875 -0.205618,0.33879 -0.317591,0.69817 -0.389801,1.25099 -0.09422,0.72132 0.01911,1.26466 0.331682,1.59068 0.144884,0.15111 0.304575,0.24162 0.516665,0.29285 0.205391,0.0496 0.348388,0.05 0.584671,0.001 0.350585,-0.0719 0.947937,-0.39209 0.973444,-0.5217 0.006,-0.032 0.03093,-0.18848 0.05481,-0.34772 0.0646,-0.43177 0.09828,-0.40527 -0.525525,-0.41402 l -0.504604,-0.007 0.006,-0.10532 c 0.0036,-0.0579 0.01564,-0.15857 0.02699,-0.22371 0.01075,-0.0651 0.03248,-0.19838 0.04717,-0.2961 l 0.02663,-0.17766 0.987356,0 0.987355,0 -0.01505,0.13819 c -0.0084,0.0759 -0.03427,0.25069 -0.0578,0.38821 -0.02352,0.13751 -0.05481,0.33294 -0.0695,0.43427 -0.01469,0.10138 -0.05553,0.36189 -0.09087,0.57903 -0.03523,0.21713 -0.07045,0.43876 -0.0781,0.49248 -0.01242,0.0871 -0.03427,0.11333 -0.200303,0.24096 -0.403462,0.3102 -0.870821,0.5142 -1.456948,0.63598 -0.165745,0.0344 -0.851463,0.0555 -0.876098,0.027 z m 3.43825,-0.10257 c -0.01075,-0.0334 8.12e-4,-0.13538 0.05863,-0.50419 0.01361,-0.0868 0.03403,-0.22305 0.04526,-0.30268 0.01075,-0.0796 0.03164,-0.21581 0.04538,-0.30267 0.01373,-0.0868 0.03451,-0.22305 0.04621,-0.30267 0.01194,-0.0796 0.03188,-0.20398 0.0449,-0.27635 0.01302,-0.0724 0.03308,-0.20267 0.04454,-0.28952 0.01194,-0.0868 0.0314,-0.22307 0.04418,-0.30268 0.01278,-0.0797 0.05386,-0.34018 0.09111,-0.57903 0.03726,-0.23885 0.09923,-0.63561 0.137755,-0.8817 0.03845,-0.24609 0.09028,-0.57772 0.114994,-0.73695 0.02472,-0.15923 0.06759,-0.43164 0.09529,-0.60535 l 0.05039,-0.31584 0.839511,-0.008 c 1.000049,-0.01 1.636915,0.0263 1.835164,0.10366 0.214454,0.0838 0.417158,0.2737 0.530171,0.49669 0.07738,0.15273 0.141898,0.43862 0.141636,0.62787 -2.87e-4,0.2145 -0.09362,0.76014 -0.152789,0.89314 -0.19019,0.42754 -0.355792,0.65739 -0.618417,0.85827 -0.160193,0.12251 -0.381047,0.23354 -0.554029,0.27851 -0.161077,0.0419 -0.713518,0.0783 -1.197129,0.0789 -0.354597,4.5e-4 -0.429636,0.007 -0.459466,0.0419 -0.01958,0.0227 -0.03606,0.0494 -0.03666,0.0592 -5.37e-4,0.01 -0.01075,0.0712 -0.02293,0.1363 -0.01206,0.0652 -0.0314,0.18358 -0.04287,0.2632 -0.01194,0.0796 -0.04287,0.28096 -0.06986,0.44743 -0.02687,0.16647 -0.05756,0.36189 -0.06795,0.43428 -0.04239,0.29349 -0.09231,0.60783 -0.102934,0.64792 -0.01493,0.0567 -0.147201,0.0758 -0.524474,0.0758 -0.233453,0 -0.306558,-0.008 -0.31555,-0.0353 z m 2.453689,-2.92662 c 0.230252,-0.0466 0.357009,-0.1052 0.484805,-0.22436 0.320254,-0.29853 0.403712,-0.90145 0.164898,-1.19112 -0.165411,-0.20063 -0.38986,-0.25431 -1.064688,-0.25459 -0.520796,-2.2e-4 -0.483277,-0.029 -0.553265,0.42439 -0.02544,0.16457 -0.07607,0.48157 -0.112606,0.70447 -0.07714,0.47056 -0.07798,0.4856 -0.03081,0.54037 0.05027,0.0583 0.824655,0.0589 1.111593,8.4e-4 z m 1.992265,2.92291 c -0.0084,-0.0254 0.01194,-0.21949 0.04466,-0.43127 0.03308,-0.21178 0.09159,-0.58639 0.130244,-0.83247 0.03857,-0.24609 0.08896,-0.57772 0.111771,-0.73695 0.02293,-0.15924 0.05194,-0.34281 0.0646,-0.40795 0.02114,-0.10891 0.03487,-0.19438 0.09744,-0.60535 0.03678,-0.24136 0.06687,-0.4256 0.09911,-0.60536 0.01684,-0.0941 0.04693,-0.28951 0.06663,-0.43427 0.01982,-0.14475 0.0566,-0.39348 0.08192,-0.55271 0.04705,-0.2963 0.08072,-0.52406 0.105084,-0.71063 0.0072,-0.0579 0.02496,-0.11404 0.03869,-0.12461 0.01373,-0.0107 0.206191,-0.0195 0.427702,-0.0197 l 0.402745,-4.1e-4 0,0.15754 c 0,0.0867 -0.01075,0.21397 -0.02496,0.28294 -0.01373,0.0689 -0.03308,0.16685 -0.04311,0.21751 -0.0096,0.0506 -0.03069,0.15134 -0.04621,0.22371 -0.03141,0.14657 -0.04788,0.25282 -0.09649,0.61851 -0.01827,0.13753 -0.04979,0.32703 -0.06998,0.42111 -0.02018,0.0941 -0.06221,0.34283 -0.09338,0.55272 -0.03117,0.2099 -0.07678,0.51191 -0.101263,0.67115 -0.04574,0.29721 -0.0652,0.42211 -0.182523,1.17122 -0.03738,0.23885 -0.08992,0.58438 -0.116666,0.76785 -0.02675,0.18346 -0.05648,0.34812 -0.06592,0.3659 -0.01218,0.0227 -0.135415,0.0361 -0.416024,0.045 -0.365332,0.0119 -0.400069,0.008 -0.414077,-0.0335 z m 1.91461,0.0202 c -0.06926,-0.0122 -0.07953,-0.0718 -0.04227,-0.24435 0.01075,-0.0506 0.03248,-0.18094 0.04776,-0.28951 0.01529,-0.10855 0.04323,-0.28623 0.06198,-0.3948 0.01875,-0.10854 0.04777,-0.29214 0.06436,-0.40795 0.05397,-0.37727 0.144562,-0.97109 0.166522,-1.09226 0.01194,-0.0652 0.03332,-0.19543 0.04788,-0.28951 0.04538,-0.29455 0.06687,-0.42577 0.116428,-0.71063 0.02639,-0.152 0.056,-0.34742 0.0658,-0.43427 0.0096,-0.0868 0.02961,-0.22307 0.04406,-0.30268 0.01445,-0.0797 0.03523,-0.2099 0.04621,-0.28952 0.01075,-0.0796 0.03129,-0.21582 0.04502,-0.30267 0.02687,-0.16991 0.06293,-0.40965 0.08705,-0.57904 l 0.01505,-0.10532 0.427941,-0.007 0.427929,-0.007 -0.01242,0.19141 c -0.0072,0.10532 -0.02329,0.24766 -0.03654,0.31642 -0.01326,0.0688 -0.03272,0.17536 -0.04323,0.23688 -0.01075,0.0615 -0.03033,0.15924 -0.04382,0.21714 -0.01361,0.0579 -0.03642,0.19411 -0.05075,0.30268 -0.01433,0.10854 -0.04633,0.31583 -0.07129,0.46059 -0.06902,0.40039 -0.08753,0.5135 -0.10986,0.67115 -0.01075,0.0796 -0.03081,0.20989 -0.04347,0.28951 -0.01266,0.0796 -0.05338,0.3461 -0.09063,0.59218 -0.03726,0.24609 -0.08837,0.57772 -0.113801,0.73695 -0.02531,0.15924 -0.0572,0.3665 -0.07069,0.4606 -0.01349,0.0941 -0.03344,0.22438 -0.04418,0.28952 -0.01075,0.0652 -0.03129,0.19542 -0.0455,0.2895 -0.048,0.31693 -0.06962,0.38906 -0.121706,0.40526 -0.05373,0.0167 -0.624841,0.0143 -0.723679,-0.002 z m -14.863304,-2.30385 c -0.04741,-0.32671 -0.04848,-0.51231 -0.0048,-0.83794 0.04717,-0.35463 0.112607,-0.60381 0.240259,-0.91475 0.161757,-0.39411 0.355243,-0.68455 0.666123,-0.99995 0.350979,-0.35609 0.854986,-0.61487 1.345941,-0.69107 0.183717,-0.0285 0.649464,-0.019 0.834542,0.017 0.104606,0.0204 0.126531,-0.0148 0.149971,-0.24116 0.03511,-0.33924 0.06711,-0.53614 0.127856,-0.78673 0.407963,-1.68354 1.621988,-2.92665 3.112312,-3.18685 0.315394,-0.055 0.914943,-0.0488 1.206347,0.0125 0.824596,0.17358 1.486598,0.57482 2.069525,1.25435 0.315705,0.36802 0.4916,0.65658 0.719476,1.18042 0.06866,0.15777 0.141529,0.29901 0.161984,0.31386 0.02926,0.0213 0.08263,-0.007 0.249586,-0.13179 0.42351,-0.31657 0.823867,-0.47008 1.301507,-0.499 0.679353,-0.0411 1.282485,0.19205 1.837864,0.71054 0.06233,0.0583 0.128763,0.12565 0.147487,0.14976 0.05063,0.0653 0.102815,0.0782 0.152705,0.0377 0.07224,-0.0588 0.567499,-0.24719 0.800259,-0.30456 0.391795,-0.0966 0.892852,-0.0647 1.304649,0.0829 0.80599,0.28888 1.485523,1.10251 1.724397,2.06469 0.04872,0.1964 0.108307,0.74551 0.06699,0.61851 -0.0072,-0.0217 -0.04406,-0.15017 -0.08239,-0.28546 -0.228114,-0.80708 -0.803316,-1.50136 -1.482167,-1.78898 -0.557695,-0.2363 -1.112214,-0.25852 -1.676453,-0.0671 -0.277421,0.0941 -0.386564,0.17099 -0.694292,0.48921 -0.08096,0.0837 -0.1555,0.15219 -0.165662,0.15219 -0.01075,0 -0.03439,-0.0444 -0.05374,-0.0987 -0.190547,-0.53349 -0.319071,-0.72121 -0.606714,-0.88607 -0.353331,-0.20251 -0.732456,-0.30362 -1.14141,-0.3044 -0.592982,-0.001 -1.201308,0.25612 -1.603324,0.67803 -0.06412,0.0672 -0.144419,0.15138 -0.178487,0.18692 l -0.06198,0.0646 -0.0363,-0.10317 c -0.34711,-0.98592 -0.919911,-1.72612 -1.711668,-2.21189 -0.645679,-0.39615 -1.406687,-0.55534 -2.127548,-0.44505 -0.285648,0.0437 -0.305459,0.0484 -0.574616,0.13607 -0.536487,0.17476 -1.069786,0.53215 -1.496748,1.00306 -0.515351,0.56841 -0.842746,1.22828 -1.039897,2.09598 -0.01278,0.0562 -0.03571,0.24253 -0.05087,0.41395 -0.01529,0.17143 -0.03368,0.32283 -0.04096,0.33647 -0.0084,0.0147 -0.08717,0.002 -0.194512,-0.0303 -0.150962,-0.0459 -0.251556,-0.0554 -0.601066,-0.057 -0.371231,-10e-4 -0.441996,0.005 -0.612123,0.059 -0.338417,0.10711 -0.558114,0.23116 -0.94543,0.53404 -0.130566,0.1021 -0.455119,0.5103 -0.575129,0.72334 -0.24549,0.43584 -0.384248,0.96663 -0.392296,1.5007 -0.0024,0.17921 -0.01075,0.32588 -0.01732,0.32594 -0.0072,5e-5 -0.02997,-0.12129 -0.05159,-0.26967 z"
       style="fill:#7a7a7a" />
    <path
       style="opacity:0;fill:#cccccc;fill-opacity:1"
       d="m 163.24365,19.767653 0,-203.962583 284.64557,0 284.64558,0 0,203.962583 0,203.962587 -284.64558,0 -284.64557,0 0,-203.962587 z M 303.27098,162.56869 c 12.09854,-1.51704 27.78796,-8.22295 35.65644,-15.24015 l 3.67679,-3.27902 2.99161,-18.54205 c 1.6454,-10.19813 3.28372,-20.84368 3.64072,-23.65678 l 0.64911,-5.114733 -3.2417,-0.648341 c -4.86388,-0.972776 -40.36633,-0.750662 -41.96625,0.262556 -1.42978,0.905473 -4.02031,12.175078 -4.08579,17.774488 -0.0472,4.03373 0.92249,4.3669 12.70978,4.3669 l 9.57586,0 -0.64362,4.69569 c -0.91682,6.68897 -2.90396,9.09275 -10.48637,12.68506 -5.69112,2.69627 -7.82157,3.16585 -14.36354,3.16585 -6.92588,0 -8.09758,-0.2957 -11.91439,-3.00682 -2.4913,-1.76959 -5.31058,-5.06886 -6.85168,-8.01819 -2.3828,-4.56014 -2.61075,-6.00405 -2.53175,-16.03637 0.14038,-17.828743 4.4538,-31.158976 12.82231,-39.62625 5.56117,-5.626801 10.84949,-8.14857 18.35083,-8.750706 10.504,-0.843162 15.09147,1.870232 19.51622,11.54342 1.57596,3.445314 3.06421,6.264208 3.30721,6.264208 1.18193,0 11.66242,-2.356385 16.3263,-3.670726 5.07216,-1.429402 5.26193,-1.610302 5.26193,-5.016026 0,-9.694136 -6.32118,-21.748195 -14.14788,-26.979018 -8.51776,-5.692681 -27.36404,-7.634555 -40.28274,-4.150624 -26.36372,7.109795 -45.73559,37.989701 -45.78353,72.981652 -0.0376,27.48314 13.30982,45.34698 35.84398,47.97246 3.70671,0.43188 6.97681,0.84451 7.26689,0.91695 0.29009,0.0725 4.20656,-0.3296 8.70326,-0.89343 l 0,0 z m 74.69907,-2.23223 c 1.18185,-0.91099 2.46967,-6.70926 4.71974,-21.25024 1.79418,-11.59481 3.61329,-20.32701 4.32929,-20.78183 0.67919,-0.43142 5.74512,-0.79472 11.25762,-0.80733 18.74149,-0.0429 28.12234,-2.87912 37.20104,-11.24757 5.24372,-4.83349 10.71618,-15.628993 12.31964,-24.302916 3.41571,-18.477276 -2.05615,-32.962017 -14.44112,-38.22758 -5.89961,-2.508259 -56.50617,-3.461701 -58.46496,-1.101498 -0.7113,0.857054 -2.82524,11.852251 -4.69767,24.433776 -1.87244,12.581525 -5.67846,37.288258 -8.45784,54.903848 -5.00922,31.7482 -5.67622,37.67502 -4.38524,38.966 1.23685,1.23684 18.90639,0.73583 20.6195,-0.58466 l 0,0 z m 94.87871,-4.00909 c 1.2188,-6.12477 10.82693,-67.230148 14.67086,-93.303122 1.45,-9.835136 2.36371,-18.96835 2.03048,-20.296031 -0.58961,-2.349168 -0.87498,-2.413965 -10.63099,-2.413965 -9.43642,0 -10.08296,0.132431 -11.01002,2.255115 -0.54169,1.240313 -3.03092,15.334779 -5.53163,31.321036 -13.37924,85.529607 -13.37175,85.474477 -11.8155,87.030717 0.36749,0.3675 5.29677,0.66818 10.95394,0.66818 l 10.28576,0 1.0471,-5.26193 0,0 z m 37.36716,4.00909 c 1.53876,-1.227 3.32968,-11.8512 15.50149,-91.958559 1.88457,-12.403131 3.17652,-23.565948 2.87099,-24.806261 -0.52927,-2.148573 -1.02233,-2.255115 -10.43643,-2.255115 -6.68261,0 -10.2171,0.40553 -10.91955,1.252842 -0.57126,0.689063 -3.12556,14.558017 -5.67624,30.819899 -2.55067,16.261882 -6.42323,40.969314 -8.60568,54.905404 -3.95148,25.23238 -4.57079,31.35556 -3.29989,32.62645 1.23902,1.23903 18.90822,0.7367 20.56531,-0.58466 l 0,0 z M 186.57054,124.75577 c -4.34383,-26.230355 4.09636,-49.872185 22.62024,-63.361619 11.07114,-8.062205 20.38763,-10.178785 35.35847,-8.032938 7.2954,1.045691 9.2393,1.053669 9.86547,0.04049 0.42891,-0.693994 1.08416,-4.620129 1.45612,-8.724758 2.85982,-31.559277 24.72278,-61.460883 51.51599,-70.457598 12.46168,-4.18443 28.88072,-4.562959 40.27508,-0.928516 10.31506,3.290182 19.5938,9.298329 29.09924,18.8422745 9.78714,9.8268072 14.21663,16.7876744 19.97667,31.3930695 1.25006,3.169689 2.66961,5.763071 3.15454,5.763071 0.48494,0 4.04041,-2.898745 7.90105,-6.44164 8.34569,-7.65883 15.23273,-11.144636 25.0188,-12.663 11.49177,-1.7830036 22.19489,0.596483 31.50953,7.005128 3.74164,2.574308 4.85011,4.174167 7.1566,10.329066 4.02427,10.738836 3.90012,10.699657 11.92281,3.762574 4.17507,-3.610118 9.11165,-6.80308 12.44815,-8.051431 19.44033,-7.273556 40.54906,0.007 53.78057,18.5493 7.0206,9.838484 10.26833,20.022401 12.0784,37.874229 0.32139,3.169688 0.9817,5.76307 1.46737,5.76307 3.07012,0 3.93484,-19.430959 1.41804,-31.864428 C 562.38315,42.631658 555.49734,28.879849 548.37858,21.16855 532.0723,3.505009 511.10669,-1.7055887 489.33748,6.4950403 l -9.16654,3.4531017 -5.86756,-5.0209175 c -7.09266,-6.069255 -17.84842,-11.36685 -26.25074,-12.9294239 -12.18541,-2.2661196 -28.48837,1.5633657 -39.23596,9.2163327 -1.55717,1.1088047 -3.07149,2.0160123 -3.36512,2.0160123 -0.29364,0 -3.05655,-4.8484964 -6.1398,-10.7744364 -9.84077,-18.9137662 -21.69242,-30.8195992 -39.12144,-39.3002932 -12.00819,-5.843012 -15.23353,-6.493377 -32.07274,-6.467207 -13.58644,0.02115 -15.728,0.271926 -22.24042,2.604777 -21.28889,7.626026 -37.23413,22.068502 -47.93048,43.4132915 -5.62934,11.2334674 -9.88766,24.9277055 -11.10941,35.7265075 l -0.66387,5.867828 -8.13929,0.01483 c -16.3925,0.02987 -28.33096,4.868101 -39.53961,16.024093 -7.91006,7.872895 -13.24625,16.547309 -16.95391,27.559976 -2.44117,7.250865 -2.69856,9.408949 -2.68966,22.551144 0.006,8.93347 0.51286,16.27073 1.3154,19.04319 2.12017,7.32432 5.28244,14.03183 6.61535,14.03183 0.97063,0 0.92461,-1.91162 -0.21114,-8.76989 l 0,-2e-5 z"
       id="path5432"
       inkscape:connector-curvature="0"
       transform="translate(81,277)" />
  </g>
  <g
     transform="translate(-81,-277)"
     inkscape:groupmode="layer"
     id="layer10"
     inkscape:label="devices" />
  <g
     transform="translate(-81,-277)"
     inkscape:groupmode="layer"
     id="layer11"
     inkscape:label="apps" />
  <g
     transform="translate(-81,-277)"
     inkscape:groupmode="layer"
     id="layer12"
     inkscape:label="actions" />
  <g
     transform="translate(-81,-277)"
     inkscape:groupmode="layer"
     id="layer13"
     inkscape:label="places" />
  <g
     transform="translate(-81,-277)"
     inkscape:groupmode="layer"
     id="layer14"
     inkscape:label="mimetypes" />
  <g
     transform="translate(-81,-277)"
     inkscape:groupmode="layer"
     id="layer15"
     inkscape:label="emblems"
     style="display:inline" />
  <g
     transform="translate(-81,-277)"
     inkscape:groupmode="layer"
     id="g4953"
     inkscape:label="categories"
     style="display:inline" />
</svg>
